<svg width="19" height="12" viewBox="0 0 19 12" fill="none" xmlns="http://www.w3.org/2000/svg">
<path d="M1 5.3C0.613401 5.3 0.3 5.6134 0.3 6C0.3 6.3866 0.613401 6.7 1 6.7L1 5.3ZM18.495 6.49497C18.7683 6.22161 18.7683 5.77839 18.495 5.50502L14.0402 1.05025C13.7668 0.776884 13.3236 0.776884 13.0503 1.05025C12.7769 1.32362 12.7769 1.76683 13.0503 2.0402L17.01 6L13.0503 9.9598C12.7769 10.2332 12.7769 10.6764 13.0503 10.9497C13.3236 11.2231 13.7668 11.2231 14.0402 10.9497L18.495 6.49497ZM1 6.7L18 6.7L18 5.3L1 5.3L1 6.7Z" fill="white"/>
</svg>
