<svg width="839" height="1235" viewBox="0 0 839 1235" fill="none" xmlns="http://www.w3.org/2000/svg">
<path d="M210.25 1.27231H628.75L838 617.817L628.75 1234.36H210.25L0.999994 617.817L210.25 1.27231Z" stroke="#C2C2C2" stroke-width="0.8" stroke-miterlimit="10"/>
<path d="M209.549 56.3965H590.577L781.091 617.812L590.577 1179.23H209.549L19.0357 617.812L209.549 56.3965Z" stroke="#C2C2C2" stroke-width="0.8" stroke-miterlimit="10"/>
<path d="M208.849 111.528H552.404L724.182 617.815L552.404 1124.1H208.849L37.0713 617.815L208.849 111.528Z" stroke="#C2C2C2" stroke-width="0.8" stroke-miterlimit="10"/>
<path d="M208.149 166.659H514.231L667.273 617.818L514.231 1068.98H208.149L55.1072 617.818L208.149 166.659Z" stroke="#C2C2C2" stroke-width="0.8" stroke-miterlimit="10"/>
<path d="M207.273 221.784H476.058L610.364 617.814L476.058 1013.84H207.273L72.9679 617.814L207.273 221.784Z" stroke="#C2C2C2" stroke-width="0.8" stroke-miterlimit="10"/>
<path d="M206.572 276.916H437.885L553.454 617.818L437.885 958.72H206.572L91.0035 617.818L206.572 276.916Z" stroke="#C2C2C2" stroke-width="0.8" stroke-miterlimit="10"/>
<path d="M205.872 332.336H399.713L496.545 617.812L399.713 903.287H205.872L109.039 617.812L205.872 332.336Z" stroke="#C2C2C2" stroke-width="0.8" stroke-miterlimit="10"/>
<path d="M205.172 387.467H361.54L439.637 617.814L361.54 848.162H205.172L127.075 617.814L205.172 387.467Z" stroke="#C2C2C2" stroke-width="0.8" stroke-miterlimit="10"/>
<path d="M204.471 442.599H323.367L382.728 617.818L323.367 793.037H204.471L144.936 617.818L204.471 442.599Z" stroke="#C2C2C2" stroke-width="0.8" stroke-miterlimit="10"/>
<path d="M203.596 497.724H285.195L325.819 617.815L285.195 737.905H203.596L162.971 617.815L203.596 497.724Z" stroke="#C2C2C2" stroke-width="0.8" stroke-miterlimit="10"/>
</svg>
