<svg width="1622" height="1751" viewBox="0 0 1622 1751" fill="none" xmlns="http://www.w3.org/2000/svg">
<g style="mix-blend-mode:color-dodge">
<path d="M566.794 1458.85L368.265 876.43L612.325 292.742L1054.91 291.474L1253.44 873.892L1009.38 1457.58L566.794 1458.85Z" stroke="#C2C2C2" stroke-width="0.8" stroke-miterlimit="10"/>
<path d="M597.822 1433.67L417.069 903.404L639.318 371.944L1042.32 370.753L1223.07 901.022L1000.82 1432.48L597.822 1433.67Z" stroke="#C2C2C2" stroke-width="0.8" stroke-miterlimit="10"/>
<path d="M628.854 1408.5L465.878 930.376L666.316 451.142L1029.73 450.028L1192.71 928.147L992.27 1407.38L628.854 1408.5Z" stroke="#C2C2C2" stroke-width="0.8" stroke-miterlimit="10"/>
<path d="M659.887 1383.32L514.686 957.346L693.315 530.34L1017.14 529.303L1162.34 955.272L983.715 1382.28L659.887 1383.32Z" stroke="#C2C2C2" stroke-width="0.8" stroke-miterlimit="10"/>
<path d="M690.998 1358.38L563.491 984.321L720.31 609.541L1004.55 608.581L1132.06 982.644L975.241 1357.42L690.998 1358.38Z" stroke="#C2C2C2" stroke-width="0.8" stroke-miterlimit="10"/>
<path d="M722.031 1333.21L612.3 1011.29L747.308 688.738L991.964 687.856L1101.7 1009.77L966.687 1332.32L722.031 1333.21Z" stroke="#C2C2C2" stroke-width="0.8" stroke-miterlimit="10"/>
<path d="M753.224 1307.89L661.27 1038.13L774.302 767.941L979.205 767.276L1071.16 1037.04L958.128 1307.23L753.224 1307.89Z" stroke="#C2C2C2" stroke-width="0.8" stroke-miterlimit="10"/>
<path d="M784.256 1282.71L710.078 1065.1L801.299 847.138L966.617 846.551L1040.79 1064.17L949.573 1282.12L784.256 1282.71Z" stroke="#C2C2C2" stroke-width="0.8" stroke-miterlimit="10"/>
<path d="M815.289 1257.53L758.886 1092.07L828.298 926.336L954.029 925.826L1010.43 1091.29L941.102 1257.27L815.289 1257.53Z" stroke="#C2C2C2" stroke-width="0.8" stroke-miterlimit="10"/>
<path d="M846.401 1232.6L807.692 1119.04L855.293 1005.54L941.437 1005.1L980.146 1118.66L932.545 1232.17L846.401 1232.6Z" stroke="#C2C2C2" stroke-width="0.8" stroke-miterlimit="10"/>
</g>
</svg>
