<svg width="1205" height="627" viewBox="0 0 1205 627" fill="none" xmlns="http://www.w3.org/2000/svg">
<g filter="url(#filter0_bd_36_23)">
<rect x="24" y="20" width="1157" height="509" rx="24" fill="#171320" shape-rendering="crispEdges"/>
<rect x="23.5" y="19.5" width="1158" height="510" rx="24.5" stroke="url(#paint0_linear_36_23)" shape-rendering="crispEdges"/>
</g>
<path d="M556.699 179.03C505.325 162.979 433.169 129.095 407.336 185.219C379.076 246.904 429.09 304.916 461.721 350.55C484.154 385.169 476.191 414.753 446.473 448.532C380.047 523.75 409.958 624.459 507.753 626.138C550.386 626.138 589.912 604.317 627.495 582.497C699.555 540.535 744.033 571.482 790.94 535.08C822.405 510.846 800.166 448.952 787.152 411.71C776.052 380.567 775.331 346.223 785.113 314.568C794.824 274.494 801.04 209.662 760.057 189.625C741.411 182.072 719.949 190.779 700.526 183.96C676.441 175.253 664.399 144.516 640.8 134.34C594.865 114.408 593.7 189.52 556.699 179.03Z" stroke="#322647" stroke-width="0.8" stroke-miterlimit="10"/>
<path d="M644.102 146.404C666.535 155.845 678.189 184.694 701.108 192.982C719.074 199.486 739.954 190.989 757.24 198.752C796.086 216.376 792.493 279.529 782.005 317.19C773.593 347.536 774.376 379.991 784.238 409.822C796.377 445.49 816.772 504.237 786.86 527.526C741.993 562.565 699.457 534.345 631.477 573.475C595.836 593.826 558.252 614.493 518.047 613.759C425.788 612.29 397.333 516.826 458.709 445.909C486.29 413.913 494.351 385.379 472.791 352.963C443.657 308.798 395.876 254.457 422.777 196.234C447.056 142.627 515.036 173.784 563.691 188.051C598.652 198.332 600.303 127.731 644.102 146.404Z" stroke="#322647" stroke-width="0.784" stroke-miterlimit="10"/>
<path d="M646.917 158.049C668.185 166.966 679.644 193.717 701.301 201.585C718.296 207.774 737.816 200.011 754.423 207.46C791.618 224.769 787.927 283.935 778.896 319.813C771.371 348.591 772.219 379.171 781.323 407.409C792.589 441.609 811.235 497.104 782.877 519.554C740.438 553.124 699.941 527.736 634.972 563.929C601.273 582.917 565.826 601.905 528.145 600.961C441.228 598.653 414.036 509.483 470.653 442.238C496.097 412.025 503.478 384.96 483.375 354.432C455.892 312.47 412.288 261.066 437.732 206.201C461.039 156.161 525.135 184.485 570.779 197.389C603.409 206.83 605.74 141.264 646.917 158.049Z" stroke="#322647" stroke-width="0.752" stroke-miterlimit="10"/>
<path d="M649.732 170.533C669.932 179.031 681.1 203.579 701.495 211.027C717.519 216.797 735.97 209.873 751.606 217.007C786.567 233.163 784.236 288.553 775.787 322.542C769.098 349.761 769.942 378.501 778.215 405.208C788.801 437.939 805.505 490.287 778.798 511.792C738.787 543.998 700.135 521.234 638.661 554.699C606.808 572.113 573.497 589.527 537.856 588.373C456.765 585.961 431.03 502.351 482.695 438.988C506.003 410.663 512.606 385.171 494.155 356.322C468.808 316.563 428.602 268.096 452.978 216.587C474.926 169.694 534.554 195.606 577.868 206.831C608.75 215.223 611.081 154.798 649.732 170.533Z" stroke="#322647" stroke-width="0.736" stroke-miterlimit="10"/>
<path d="M652.549 182.597C671.972 190.15 682.363 213.02 701.689 219.944C716.839 225.504 734.028 219.419 748.693 226.133C781.615 241.449 780.061 293.063 772.68 325.164C766.866 350.914 767.808 377.904 775.399 403.109C785.111 434.581 800.066 483.362 774.914 504.028C737.233 534.766 700.427 514.519 642.546 545.99C612.635 561.936 581.267 577.462 547.957 576.308C472.498 572.951 448.025 495.321 494.835 435.839C516.006 409.298 522.027 385.38 505.129 358.209C481.724 320.653 445.597 275.124 468.225 227.077C488.911 183.227 544.363 206.096 584.763 216.587C613.8 223.615 616.52 168.54 652.549 182.597Z" stroke="#322647" stroke-width="0.72" stroke-miterlimit="10"/>
<path d="M655.464 194.661C673.43 201.585 683.724 222.356 701.885 228.965C716.064 234.211 732.185 228.965 745.878 235.365C776.663 249.842 775.983 297.574 769.574 327.787C764.55 352.115 765.555 377.445 772.487 401.221C781.325 430.909 794.435 476.753 770.836 496.58C735.681 525.219 700.525 508.12 646.335 535.71C618.269 550.187 589.038 564.349 558.058 562.88C488.135 559.418 464.536 487.663 506.976 432.273C526.398 407.515 531.254 385.17 516.007 359.783C494.642 324.325 462.206 281.733 483.474 237.148C502.897 196.234 554.076 216.166 591.951 225.189C618.852 232.113 621.959 181.652 655.464 194.661Z" stroke="#322647" stroke-width="0.688" stroke-miterlimit="10"/>
<path d="M658.28 206.726C675.081 213.02 685.181 231.799 702.079 238.198C715.383 243.024 730.339 238.198 743.061 244.702C771.613 258.445 772.195 302.4 766.466 330.62C762.294 353.455 763.361 377.046 769.573 399.333C777.537 427.448 788.996 470.145 766.854 489.028C734.127 516.933 700.816 502.141 650.316 527.423C624.193 540.432 597 552.81 568.352 551.237C504.062 547.25 481.628 481.475 519.794 430.071C536.595 406.991 541.257 386.325 527.466 362.616C508.043 329.466 479.589 289.707 499.303 248.479C517.463 210.713 564.564 227.498 599.72 235.576C623.901 240.506 627.397 195.187 658.28 206.726Z" stroke="#322647" stroke-width="0.672" stroke-miterlimit="10"/>
<path d="M661.096 218.789C676.829 224.454 686.541 241.239 702.273 247.009C714.607 251.52 728.397 247.743 740.245 253.618C766.66 266.626 767.729 306.7 763.358 333.031C760.081 354.225 761.209 375.94 766.66 396.604C773.75 423.355 783.267 462.695 762.873 480.529C732.573 506.965 701.108 494.901 653.813 517.456C629.534 528.995 604.479 539.801 578.16 537.912C519.892 533.611 498.235 473.605 531.157 426.188C545.918 405.207 549.803 385.694 537.664 363.769C520.474 332.822 495.516 296 513.87 258.234C530.768 223.51 573.596 237.252 606.13 244.176C628.951 249.002 632.545 208.614 661.096 218.789Z" stroke="#322647" stroke-width="0.64" stroke-miterlimit="10"/>
<path d="M664.01 230.855C678.578 235.891 687.901 250.682 702.856 256.033C714.316 260.229 726.941 257.187 737.818 262.747C762.096 274.916 763.942 311.213 760.64 336.181C758.168 355.819 759.357 375.793 764.136 394.928C770.351 420.105 778.12 456.298 759.28 473.397C731.408 498.47 701.691 489.028 657.989 508.75C635.556 519.241 612.54 528.053 588.552 525.955C535.431 521.234 515.425 467.103 543.685 423.567C556.213 404.159 559.515 386.535 548.929 366.393C533.877 337.544 512.511 303.45 529.507 269.356C545.045 237.884 583.794 249.109 613.511 254.249C634.002 257.396 638.178 222.043 664.01 230.855Z" stroke="#322647" stroke-width="0.624" stroke-miterlimit="10"/>
<path d="M666.826 242.919C680.325 247.325 689.26 260.124 702.662 264.949C713.15 268.831 724.61 266.733 734.515 271.873C756.658 283.308 759.377 315.724 757.143 338.383C755.491 356.447 756.706 374.683 760.736 392.305C766.175 416.014 772.196 449.059 754.91 465.739C729.66 488.923 701.496 482.209 661.679 499.099C641.973 509.013 620.377 513.757 598.652 512.946C551.066 507.701 532.323 459.549 555.727 420C561.128 412.67 564.398 403.776 565.123 394.441C565.849 385.106 563.998 375.748 559.806 367.547C546.793 340.901 529.215 310.059 544.656 279.007C559.029 250.472 593.213 259.075 620.6 262.851C638.955 265.894 643.616 235.471 666.826 242.919Z" stroke="#322647" stroke-width="0.608" stroke-miterlimit="10"/>
<path d="M669.643 254.981C682.074 258.653 690.717 269.458 702.857 273.969C712.568 277.536 722.28 276.172 731.991 280.998C751.997 291.489 755.493 320.233 754.328 341.004C753.531 357.514 754.805 374.064 758.115 390.205C762.679 412.34 766.855 442.133 751.123 457.45C728.204 479.69 702.565 475.703 665.37 489.865C647.444 498.081 627.993 501.673 608.558 500.356C566.605 494.691 549.027 452.519 567.77 416.431C572.063 409.555 574.585 401.568 575.08 393.292C575.575 385.015 574.024 376.746 570.586 369.329C559.612 344.886 545.725 316.876 559.807 289.391C572.917 263.898 603.217 269.668 627.787 272.186C644.005 274.284 649.055 248.897 669.643 254.981Z" stroke="#322647" stroke-width="0.576" stroke-miterlimit="10"/>
<path d="M672.458 267.046C683.821 270.088 691.881 278.901 703.049 282.992C711.81 284.688 720.443 287.072 728.882 290.125C746.654 299.987 751.024 324.744 750.927 343.627C750.938 358.523 752.272 373.383 754.909 388.002C758.599 408.984 761.027 435.315 746.848 449.582C726.357 470.563 701.981 469.2 669.156 481.054C653.062 487.63 635.782 490.107 618.656 488.292C610.906 487.623 603.425 484.912 596.869 480.397C590.312 475.882 584.88 469.7 581.047 462.392C577.214 455.084 575.097 446.872 574.881 438.477C574.666 430.08 576.358 421.755 579.811 414.229C583.013 407.822 584.81 400.707 585.063 393.431C585.315 386.156 584.017 378.915 581.267 372.267C572.43 349.922 561.844 324.954 574.955 300.826C586.706 278.376 612.83 281.313 634.486 282.467C649.053 282.782 654.492 262.221 672.458 267.046Z" stroke="#322647" stroke-width="0.56" stroke-miterlimit="10"/>
<path d="M675.373 279.111C684.912 282.755 694.223 287.066 703.245 292.014C711.031 293.709 718.667 296.131 726.067 299.252C741.702 308.379 746.849 329.255 747.82 346.25C748.5 359.049 750.151 373.001 751.996 385.905C754.813 405.102 755.395 428.391 742.868 441.819C724.804 461.332 702.274 462.8 672.556 471.298C658.329 476.22 643.244 477.548 628.466 475.179C621.796 474.231 615.405 471.688 609.759 467.735C604.114 463.782 599.354 458.519 595.829 452.329C592.304 446.139 590.1 439.178 589.379 431.952C588.657 424.726 589.437 417.417 591.66 410.557C595.885 398.672 595.885 385.517 591.66 373.631C584.959 353.489 578.452 331.668 589.718 310.687C600.983 289.706 622.057 290.965 641.091 291.384C654.105 291.594 659.932 275.544 675.373 279.111Z" stroke="#322647" stroke-width="0.544" stroke-miterlimit="10"/>
<path d="M678.188 291.174C686.85 293.675 695.297 296.974 703.438 301.035C710.122 302.781 716.628 305.241 722.86 308.378C729 313.005 734.11 319.046 737.822 326.069C741.534 333.09 743.755 340.915 744.323 348.977C745.78 359.992 747.431 372.161 748.693 383.701C750.538 401.43 749.373 421.467 738.982 434.056C723.152 451.785 702.466 456.296 676.343 462.275C663.911 465.487 650.972 465.666 638.468 462.8C627.033 460.408 616.935 453.235 610.37 442.843C603.804 432.451 601.303 419.679 603.409 407.305C605.407 396.88 605.075 386.091 602.438 375.833C597.874 357.789 594.96 338.801 604.769 321.492C614.578 304.182 632.544 302.399 648.471 300.72C659.056 299.671 665.466 288.866 678.188 291.174Z" stroke="#322647" stroke-width="0.512" stroke-miterlimit="10"/>
<path d="M681.103 303.24C688.862 304.513 696.458 306.766 703.73 309.954C709.358 311.874 714.792 314.404 719.949 317.507C730.767 325.565 738.365 337.745 741.217 351.602C743.554 361.402 745.082 371.408 745.781 381.5C747.52 397.459 743.446 413.522 734.419 426.295C720.043 442.412 700.447 451.887 679.743 452.731C669.165 454.379 658.381 453.446 648.181 450.003C639.018 446.949 630.959 440.9 625.114 432.689C619.27 424.478 615.928 414.509 615.55 404.159C615.35 395.234 614.603 386.333 613.317 377.513C610.002 361.87 612.402 345.449 620.018 331.67C624.231 325.709 629.518 320.731 635.56 317.035C641.601 313.339 648.273 311.002 655.173 310.164C664.108 308.276 671.391 302.191 681.103 303.24Z" stroke="#322647" stroke-width="0.496" stroke-miterlimit="10"/>
<path d="M683.917 443.498C716.688 443.498 743.254 414.801 743.254 379.4C743.254 344 716.688 315.303 683.917 315.303C651.145 315.303 624.58 344 624.58 379.4C624.58 414.801 651.145 443.498 683.917 443.498Z" stroke="#322647" stroke-width="0.464" stroke-miterlimit="10"/>
<defs>
<filter id="filter0_bd_36_23" x="-37" y="-41" width="1279" height="631" filterUnits="userSpaceOnUse" color-interpolation-filters="sRGB">
<feFlood flood-opacity="0" result="BackgroundImageFix"/>
<feGaussianBlur in="BackgroundImageFix" stdDeviation="30"/>
<feComposite in2="SourceAlpha" operator="in" result="effect1_backgroundBlur_36_23"/>
<feColorMatrix in="SourceAlpha" type="matrix" values="0 0 0 0 0 0 0 0 0 0 0 0 0 0 0 0 0 0 127 0" result="hardAlpha"/>
<feMorphology radius="1" operator="erode" in="SourceAlpha" result="effect2_dropShadow_36_23"/>
<feOffset dy="4"/>
<feGaussianBlur stdDeviation="12"/>
<feComposite in2="hardAlpha" operator="out"/>
<feColorMatrix type="matrix" values="0 0 0 0 0 0 0 0 0 0 0 0 0 0 0 0 0 0 0.3 0"/>
<feBlend mode="normal" in2="effect1_backgroundBlur_36_23" result="effect2_dropShadow_36_23"/>
<feBlend mode="normal" in="SourceGraphic" in2="effect2_dropShadow_36_23" result="shape"/>
</filter>
<linearGradient id="paint0_linear_36_23" x1="327.958" y1="20" x2="876.41" y2="581.599" gradientUnits="userSpaceOnUse">
<stop stop-color="white"/>
<stop offset="0.338542" stop-color="white" stop-opacity="0.692708"/>
<stop offset="0.640625" stop-color="white" stop-opacity="0.692708"/>
<stop offset="1" stop-color="white" stop-opacity="0"/>
</linearGradient>
</defs>
</svg>
