<svg width="62" height="18" viewBox="0 0 62 18" fill="none" xmlns="http://www.w3.org/2000/svg">
<path d="M6.18552 17.8089C13.6165 17.8089 17.6815 11.1595 17.6815 5.40323C17.6815 5.21716 17.6815 5.02843 17.6741 4.84236C18.4655 4.22365 19.1486 3.45765 19.6913 2.58025C18.952 2.93226 18.1686 3.16426 17.3665 3.26872C18.2114 2.72331 18.8442 1.86516 19.1473 0.853766C18.3535 1.36164 17.4846 1.71817 16.5788 1.90773C15.9698 1.20734 15.164 0.743343 14.2861 0.587626C13.4082 0.43191 12.5073 0.593161 11.7229 1.0464C10.9384 1.49964 10.3143 2.21958 9.9471 3.09469C9.57991 3.9698 9.49018 4.95125 9.69179 5.88702C8.0854 5.80003 6.51389 5.34936 5.07917 4.56424C3.64444 3.77911 2.37856 2.67707 1.36362 1.32958C0.848373 2.29062 0.691131 3.42741 0.923823 4.50911C1.15651 5.59081 1.7617 6.53632 2.61648 7.15364C1.97594 7.13014 1.34949 6.94439 0.78765 6.61137V6.67118C0.788755 7.67794 1.1117 8.65341 1.70191 9.43271C2.29211 10.212 3.11337 10.7473 4.02686 10.9482C3.68013 11.0513 3.32195 11.1028 2.9623 11.101C2.70876 11.1019 2.45572 11.0765 2.20665 11.0253C2.46484 11.8919 2.96756 12.6496 3.64442 13.1923C4.32127 13.735 5.13835 14.0355 5.98122 14.0516C4.54936 15.2661 2.78065 15.9248 0.959949 15.9216C0.63913 15.9231 0.318535 15.9031 0 15.8618C1.84792 17.1341 3.994 17.8097 6.18552 17.8089Z" fill="white"/>
<path d="M58.7682 1.96625C57.4382 1.29668 55.9982 0.810711 54.4982 0.529926C54.485 0.529472 54.4719 0.532138 54.4598 0.537735C54.4477 0.543333 54.4369 0.551727 54.4282 0.562325C54.2482 0.918706 54.0382 1.38308 53.8982 1.73946C52.3072 1.48027 50.6892 1.48027 49.0982 1.73946C48.9582 1.37228 48.7482 0.918706 48.5582 0.562325C48.5482 0.540726 48.5182 0.529926 48.4882 0.529926C46.9882 0.810711 45.5582 1.29668 44.2182 1.96625C44.2082 1.96625 44.1982 1.97705 44.1882 1.98785C41.4682 6.38321 40.7182 10.6598 41.0882 14.8931C41.0882 14.9147 41.0982 14.9363 41.1182 14.9471C42.9182 16.3727 44.6482 17.2366 46.3582 17.809C46.3882 17.8198 46.4182 17.809 46.4282 17.7874C46.8282 17.1934 47.1882 16.5671 47.4982 15.9083C47.5182 15.8651 47.4982 15.8219 47.4582 15.8111C46.8882 15.5735 46.3482 15.2927 45.8182 14.9687C45.7782 14.9471 45.7782 14.8823 45.8082 14.8499C45.9182 14.7636 46.0282 14.6664 46.1382 14.58C46.1582 14.5584 46.1882 14.5584 46.2082 14.5692C49.6482 16.2647 53.3582 16.2647 56.7582 14.5692C56.7782 14.5584 56.8082 14.5584 56.8282 14.58C56.9382 14.6772 57.0482 14.7636 57.1582 14.8607C57.1982 14.8931 57.1982 14.9579 57.1482 14.9795C56.6282 15.3143 56.0782 15.5843 55.5082 15.8219C55.4682 15.8327 55.4582 15.8867 55.4682 15.9191C55.7882 16.5779 56.1482 17.2042 56.5382 17.7982C56.5682 17.809 56.5982 17.8198 56.6282 17.809C58.3482 17.2366 60.0782 16.3727 61.8782 14.9471C61.8982 14.9363 61.9082 14.9147 61.9082 14.8931C62.3482 10.001 61.1782 5.75684 58.8082 1.98785C58.7982 1.97705 58.7882 1.96625 58.7682 1.96625ZM48.0182 12.3121C46.9882 12.3121 46.1282 11.2861 46.1282 10.0226C46.1282 8.75908 46.9682 7.73314 48.0182 7.73314C49.0782 7.73314 49.9182 8.76988 49.9082 10.0226C49.9082 11.2861 49.0682 12.3121 48.0182 12.3121ZM54.9882 12.3121C53.9582 12.3121 53.0982 11.2861 53.0982 10.0226C53.0982 8.75908 53.9382 7.73314 54.9882 7.73314C56.0482 7.73314 56.8882 8.76988 56.8782 10.0226C56.8782 11.2861 56.0482 12.3121 54.9882 12.3121Z" fill="white"/>
</svg>
