<svg width="44" height="34" viewBox="0 0 44 34" fill="none" xmlns="http://www.w3.org/2000/svg">
<path d="M37.2296 2.82561C34.4428 1.50845 31.4256 0.552453 28.2826 9.77206e-05C28.2551 -0.000795827 28.2277 0.00444747 28.2023 0.0154591C28.177 0.0264706 28.1543 0.0429831 28.136 0.0638315C27.7588 0.764898 27.3188 1.67841 27.0255 2.37947C23.6919 1.86961 20.3017 1.86961 16.9681 2.37947C16.6747 1.65716 16.2347 0.764898 15.8366 0.0638315C15.8156 0.0213426 15.7528 9.77206e-05 15.6899 9.77206e-05C12.547 0.552453 9.5507 1.50845 6.743 2.82561C6.72205 2.82561 6.7011 2.84685 6.68015 2.8681C0.980942 11.5146 -0.59053 19.9274 0.18473 28.2552C0.18473 28.2977 0.205683 28.3402 0.247589 28.3614C4.01912 31.1657 7.64398 32.8652 11.2269 33.9912C11.2898 34.0124 11.3527 33.9912 11.3736 33.9487C12.2117 32.7803 12.966 31.5481 13.6156 30.2522C13.6575 30.1672 13.6156 30.0822 13.5318 30.061C12.3374 29.5936 11.206 29.0412 10.0955 28.4039C10.0117 28.3614 10.0117 28.234 10.0745 28.1702C10.305 28.0003 10.5355 27.8091 10.766 27.6391C10.8079 27.5966 10.8707 27.5966 10.9126 27.6179C18.1205 30.9532 25.894 30.9532 33.018 27.6179C33.0599 27.5966 33.1228 27.5966 33.1647 27.6391C33.3952 27.8303 33.6256 28.0003 33.8561 28.1915C33.9399 28.2552 33.9399 28.3827 33.8352 28.4252C32.7456 29.0837 31.5932 29.6148 30.3989 30.0822C30.3151 30.1035 30.2941 30.2097 30.3151 30.2734C30.9856 31.5693 31.7399 32.8015 32.557 33.97C32.6199 33.9912 32.6828 34.0124 32.7456 33.9912C36.3495 32.8652 39.9744 31.1657 43.7459 28.3614C43.7878 28.3402 43.8088 28.2977 43.8088 28.2552C44.7307 18.6315 42.2792 10.2824 37.3134 2.8681C37.2924 2.84685 37.2715 2.82561 37.2296 2.82561ZM14.7051 23.1778C12.547 23.1778 10.745 21.1596 10.745 18.674C10.745 16.1884 12.5051 14.1701 14.7051 14.1701C16.9261 14.1701 18.6862 16.2096 18.6652 18.674C18.6652 21.1596 16.9052 23.1778 14.7051 23.1778ZM29.3093 23.1778C27.1512 23.1778 25.3492 21.1596 25.3492 18.674C25.3492 16.1884 27.1093 14.1701 29.3093 14.1701C31.5304 14.1701 33.2904 16.2096 33.2694 18.674C33.2694 21.1596 31.5304 23.1778 29.3093 23.1778Z" fill="white"/>
</svg>
