<svg width="42" height="34" viewBox="0 0 42 34" fill="none" xmlns="http://www.w3.org/2000/svg">
<path d="M42 4C40.4541 4.7 38.7878 5.16 37.0612 5.38C38.8279 4.32 40.1931 2.64 40.8356 0.62C39.1692 1.62 37.3222 2.32 35.3748 2.72C33.7887 1 31.5602 0 29.0306 0C24.3126 0 20.4579 3.84 20.4579 8.58C20.4579 9.26 20.5382 9.92 20.6788 10.54C13.5316 10.18 7.1673 6.76 2.93117 1.58C2.18834 2.84 1.76673 4.32 1.76673 5.88C1.76673 8.86 3.27247 11.5 5.60134 13C4.17591 13 2.85086 12.6 1.68642 12V12.06C1.68642 16.22 4.65774 19.7 8.59274 20.48C7.32938 20.8244 6.00306 20.8723 4.71797 20.62C5.26326 22.325 6.33119 23.8168 7.77164 24.8859C9.21209 25.9549 10.9526 26.5474 12.7486 26.58C9.70423 28.9809 5.93059 30.2786 2.0478 30.26C1.3652 30.26 0.6826 30.22 0 30.14C3.81453 32.58 8.35182 34 13.2103 34C29.0306 34 37.7237 20.92 37.7237 9.58C37.7237 9.2 37.7237 8.84 37.7036 8.46C39.3901 7.26 40.8356 5.74 42 4Z" fill="white"/>
</svg>
