<svg width="60" height="34" viewBox="0 0 60 34" fill="none" xmlns="http://www.w3.org/2000/svg">
<path d="M60 17C60 24.8625 58.7143 31.2375 57 31.2375C55.2857 31.2375 54 24.8625 54 17C54 9.1375 55.2857 2.7625 57 2.7625C58.7143 2.7625 60 9.1375 60 17ZM52.5 17C52.5 25.7125 48.6429 32.9375 44.1429 32.9375C39.6429 32.9375 35.7857 25.7125 35.7857 17C35.7857 8.2875 39.6429 1.0625 44.1429 1.0625C48.6429 1.0625 52.5 8.2875 52.5 17ZM33.8571 17C33.8571 26.35 26.3571 34 16.9286 34C7.5 34 0 26.35 0 17C0 7.65 7.5 0 16.9286 0C26.3571 0 33.8571 7.65 33.8571 17Z" fill="white"/>
</svg>
